<svg xmlns="http://www.w3.org/2000/svg" xmlns:xlink="http://www.w3.org/1999/xlink" width="500" zoomAndPan="magnify" viewBox="0 0 375 374.999991" height="500" preserveAspectRatio="xMidYMid meet" version="1.0"><defs><g/><clipPath id="c31c10282b"><path d="M 103 72 L 275.195312 72 L 275.195312 182 L 103 182 Z M 103 72 " clip-rule="nonzero"/></clipPath><clipPath id="ac7e0c4196"><path d="M 167 181 L 211 181 L 211 214.464844 L 167 214.464844 Z M 167 181 " clip-rule="nonzero"/></clipPath></defs><g clip-path="url(#c31c10282b)"><path fill="#4fd8dd" d="M 252.949219 120.15625 L 250.863281 119.519531 L 250.917969 116.980469 C 250.925781 101.824219 237.019531 89.910156 221.324219 93.292969 C 219.34375 93.71875 217.4375 94.472656 215.636719 95.398438 L 213.003906 96.746094 L 212.246094 95.195312 C 206.949219 84.375 197.179688 76.09375 185.367188 73.617188 C 163.433594 69.019531 143.882812 84.445312 140.167969 105.136719 L 139.984375 106.164062 L 137.765625 106.34375 C 115.632812 108.21875 98.949219 129.425781 104 152.289062 C 107.882812 169.871094 124.253906 181.90625 142.285156 181.90625 L 151.960938 181.90625 C 154.382812 181.90625 156.824219 181.953125 159.09375 181.875 C 165.722656 181.652344 169.832031 174.566406 166.871094 168.648438 C 158.449219 168.648438 152.410156 160.007812 155.863281 152.335938 C 156.570312 150.765625 157.570312 149.296875 158.863281 148.007812 L 178.816406 128.078125 C 184.527344 122.378906 193.777344 122.378906 199.484375 128.078125 L 219.4375 148.007812 C 220.726562 149.292969 221.726562 150.761719 222.433594 152.332031 C 225.898438 160 219.847656 168.648438 211.421875 168.648438 C 208.402344 174.683594 212.726562 181.757812 219.480469 181.902344 C 221.230469 181.941406 223.015625 181.90625 224.695312 181.90625 L 242.402344 181.90625 C 259.808594 181.90625 275.210938 167.703125 275.199219 150.316406 C 275.1875 136.390625 266.242188 124.273438 252.949219 120.15625 Z M 252.949219 120.15625 " fill-opacity="1" fill-rule="nonzero"/></g><g clip-path="url(#ac7e0c4196)"><path fill="#4fd8dd" d="M 206.550781 189.734375 L 171.84375 189.734375 C 169.683594 189.734375 167.933594 187.988281 167.933594 185.832031 L 167.933594 185.824219 C 167.933594 183.667969 169.683594 181.921875 171.84375 181.921875 L 206.550781 181.921875 C 208.710938 181.921875 210.460938 183.667969 210.460938 185.824219 L 210.460938 185.832031 C 210.460938 187.988281 208.707031 189.734375 206.550781 189.734375 Z M 210.425781 198.164062 C 210.425781 196.007812 208.675781 194.261719 206.515625 194.261719 L 171.808594 194.261719 C 169.648438 194.261719 167.898438 196.007812 167.898438 198.164062 C 167.898438 200.320312 169.648438 202.066406 171.808594 202.066406 L 206.515625 202.066406 C 208.675781 202.066406 210.425781 200.320312 210.425781 198.164062 Z M 210.425781 210.5 C 210.425781 208.339844 208.675781 206.59375 206.515625 206.59375 L 171.808594 206.59375 C 169.648438 206.59375 167.898438 208.339844 167.898438 210.5 C 167.898438 212.65625 169.648438 214.402344 171.808594 214.402344 L 206.515625 214.402344 C 208.675781 214.402344 210.425781 212.65625 210.425781 210.5 Z M 210.425781 210.5 " fill-opacity="1" fill-rule="nonzero"/></g><g fill="#000000" fill-opacity="1"><g transform="translate(112.734789, 247.030297)"><g><path d="M 1.539062 -19.597656 L 1.539062 0 L 5.261719 0 L 5.261719 -19.597656 Z M 1.539062 -19.597656 "/></g></g></g><g fill="#000000" fill-opacity="1"><g transform="translate(118.977866, 247.030297)"><g><path d="M 15.175781 -13.691406 C 13.636719 -13.691406 12.261719 -13.046875 11.28125 -11.953125 C 10.5 -13.101562 9.296875 -13.691406 7.699219 -13.691406 C 6.4375 -13.691406 5.375 -13.160156 4.5625 -12.320312 L 4.5625 -13.496094 L 0.839844 -13.496094 L 0.839844 0 L 4.5625 0 L 4.5625 -7.335938 C 4.5625 -9.210938 5.320312 -10.21875 6.636719 -10.21875 C 7.980469 -10.21875 8.652344 -9.238281 8.652344 -7.476562 L 8.652344 0 L 12.375 0 L 12.375 -7.335938 C 12.375 -9.210938 13.101562 -10.21875 14.445312 -10.21875 C 15.789062 -10.21875 16.460938 -9.238281 16.460938 -7.476562 L 16.460938 0 L 20.1875 0 L 20.1875 -7.335938 C 20.1875 -11.480469 18.28125 -13.691406 15.175781 -13.691406 Z M 15.175781 -13.691406 "/></g></g></g><g fill="#000000" fill-opacity="1"><g transform="translate(140.002921, 247.030297)"><g><path d="M 6.804688 -13.691406 C 3.445312 -13.691406 1.457031 -11.480469 1.203125 -9.714844 L 4.3125 -9.042969 C 4.535156 -10.078125 5.402344 -10.609375 6.550781 -10.640625 C 7.867188 -10.695312 8.734375 -9.855469 8.539062 -9.042969 C 8.371094 -8.289062 7.417969 -8.289062 5.152344 -7.785156 C 2.296875 -7.167969 0.28125 -6.132812 0.28125 -3.191406 C 0.390625 -1.148438 1.847656 0.222656 4.480469 0.222656 C 6.777344 0.222656 8.121094 -0.757812 8.625 -1.261719 L 8.625 0 L 12.320312 0 L 12.320312 -8.425781 C 12.320312 -12.347656 9.742188 -13.691406 6.804688 -13.691406 Z M 8.625 -5.515625 C 8.511719 -4.03125 7.476562 -2.882812 6.019531 -2.660156 C 5.179688 -2.519531 4.339844 -2.6875 4.117188 -3.304688 C 3.863281 -3.976562 4.253906 -4.871094 5.628906 -5.234375 C 7.390625 -5.683594 8.625 -5.933594 8.625 -5.933594 Z M 8.625 -5.515625 "/></g></g></g><g fill="#000000" fill-opacity="1"><g transform="translate(153.161046, 247.030297)"><g><path d="M 10.386719 -13.496094 L 10.386719 -12.320312 C 9.464844 -13.160156 8.230469 -13.691406 6.804688 -13.691406 C 2.910156 -13.691406 0.28125 -10.640625 0.28125 -6.746094 C 0.28125 -2.855469 2.910156 0.222656 6.804688 0.222656 C 8.230469 0.222656 9.433594 -0.308594 10.386719 -1.148438 C 10.359375 1.230469 9.097656 2.742188 6.914062 2.742188 C 5.320312 2.742188 4.285156 2.070312 3.613281 1.261719 L 0.8125 3.21875 C 1.820312 4.675781 4.171875 6.328125 7 6.328125 C 11.953125 6.328125 14.109375 2.714844 14.109375 -1.960938 C 14.109375 -6.328125 14.109375 -13.496094 14.109375 -13.496094 Z M 7.195312 -3.191406 C 5.179688 -3.191406 4.003906 -4.730469 4.003906 -6.746094 C 4.003906 -8.761719 5.179688 -10.304688 7.195312 -10.304688 C 9.210938 -10.304688 10.386719 -8.761719 10.386719 -6.746094 C 10.386719 -4.730469 9.210938 -3.191406 7.195312 -3.191406 Z M 7.195312 -3.191406 "/></g></g></g><g fill="#000000" fill-opacity="1"><g transform="translate(168.110925, 247.030297)"><g><path d="M 13.101562 -5.402344 C 13.1875 -5.824219 13.214844 -6.269531 13.214844 -6.746094 C 13.214844 -10.640625 10.835938 -13.691406 6.972656 -13.691406 C 3.078125 -13.691406 0.28125 -10.640625 0.28125 -6.746094 C 0.28125 -2.855469 3.21875 0.222656 7.113281 0.222656 C 9.574219 0.222656 11.5625 -1.007812 12.683594 -2.882812 L 9.601562 -4.394531 C 9.070312 -3.640625 8.203125 -3.191406 7.113281 -3.191406 C 5.570312 -3.191406 4.535156 -4.085938 4.117188 -5.402344 Z M 6.972656 -10.304688 C 8.539062 -10.304688 9.378906 -9.351562 9.6875 -8.007812 L 4.085938 -8.007812 C 4.421875 -9.351562 5.402344 -10.304688 6.972656 -10.304688 Z M 6.972656 -10.304688 "/></g></g></g><g fill="#000000" fill-opacity="1"><g transform="translate(181.605014, 247.030297)"><g><path d="M 12.683594 -19.597656 L 12.683594 -7.785156 C 12.683594 -5.152344 11.226562 -3.527344 8.902344 -3.527344 C 6.550781 -3.527344 5.125 -5.152344 5.125 -7.785156 L 5.125 -19.597656 L 1.398438 -19.597656 L 1.398438 -7.699219 C 1.398438 -2.800781 4.339844 0.222656 8.902344 0.222656 C 13.4375 0.222656 16.40625 -2.800781 16.40625 -7.699219 L 16.40625 -19.597656 Z M 12.683594 -19.597656 "/></g></g></g><g fill="#000000" fill-opacity="1"><g transform="translate(198.850589, 247.030297)"><g><path d="M 8.148438 -13.691406 C 6.71875 -13.691406 5.488281 -13.1875 4.5625 -12.347656 L 4.5625 -13.496094 L 0.839844 -13.496094 L 0.839844 6.101562 L 4.5625 6.101562 L 4.5625 -1.175781 C 5.488281 -0.308594 6.71875 0.222656 8.148438 0.222656 C 12.039062 0.222656 14.644531 -2.855469 14.644531 -6.746094 C 14.644531 -10.640625 12.039062 -13.691406 8.148438 -13.691406 Z M 7.753906 -3.191406 C 5.738281 -3.191406 4.5625 -4.730469 4.5625 -6.746094 C 4.5625 -8.761719 5.738281 -10.304688 7.753906 -10.304688 C 9.769531 -10.304688 10.917969 -8.761719 10.917969 -6.746094 C 10.917969 -4.730469 9.769531 -3.191406 7.753906 -3.191406 Z M 7.753906 -3.191406 "/></g></g></g><g fill="#000000" fill-opacity="1"><g transform="translate(213.772471, 247.030297)"><g><path d="M 0.980469 -21 L 0.980469 0 L 4.703125 0 L 4.703125 -21 Z M 0.980469 -21 "/></g></g></g><g fill="#000000" fill-opacity="1"><g transform="translate(219.315634, 247.030297)"><g><path d="M 7.25 -13.691406 C 3.359375 -13.691406 0.421875 -10.640625 0.421875 -6.746094 C 0.421875 -2.855469 3.359375 0.222656 7.25 0.222656 C 11.144531 0.222656 14.082031 -2.855469 14.082031 -6.746094 C 14.082031 -10.640625 11.144531 -13.691406 7.25 -13.691406 Z M 7.25 -3.191406 C 5.234375 -3.191406 4.058594 -4.730469 4.058594 -6.746094 C 4.058594 -8.761719 5.234375 -10.304688 7.25 -10.304688 C 9.265625 -10.304688 10.441406 -8.761719 10.441406 -6.746094 C 10.441406 -4.730469 9.265625 -3.191406 7.25 -3.191406 Z M 7.25 -3.191406 "/></g></g></g><g fill="#000000" fill-opacity="1"><g transform="translate(233.677591, 247.030297)"><g><path d="M 6.804688 -13.691406 C 3.445312 -13.691406 1.457031 -11.480469 1.203125 -9.714844 L 4.3125 -9.042969 C 4.535156 -10.078125 5.402344 -10.609375 6.550781 -10.640625 C 7.867188 -10.695312 8.734375 -9.855469 8.539062 -9.042969 C 8.371094 -8.289062 7.417969 -8.289062 5.152344 -7.785156 C 2.296875 -7.167969 0.28125 -6.132812 0.28125 -3.191406 C 0.390625 -1.148438 1.847656 0.222656 4.480469 0.222656 C 6.777344 0.222656 8.121094 -0.757812 8.625 -1.261719 L 8.625 0 L 12.320312 0 L 12.320312 -8.425781 C 12.320312 -12.347656 9.742188 -13.691406 6.804688 -13.691406 Z M 8.625 -5.515625 C 8.511719 -4.03125 7.476562 -2.882812 6.019531 -2.660156 C 5.179688 -2.519531 4.339844 -2.6875 4.117188 -3.304688 C 3.863281 -3.976562 4.253906 -4.871094 5.628906 -5.234375 C 7.390625 -5.683594 8.625 -5.933594 8.625 -5.933594 Z M 8.625 -5.515625 "/></g></g></g><g fill="#000000" fill-opacity="1"><g transform="translate(246.835709, 247.030297)"><g><path d="M 10.304688 -19.597656 L 10.304688 -12.320312 C 9.351562 -13.160156 8.148438 -13.691406 6.691406 -13.691406 C 2.800781 -13.691406 0.28125 -10.640625 0.28125 -6.746094 C 0.28125 -2.855469 2.800781 0.222656 6.691406 0.222656 C 8.148438 0.222656 9.351562 -0.308594 10.304688 -1.148438 L 10.304688 0 L 14.027344 0 L 14.027344 -19.597656 Z M 7.113281 -3.191406 C 5.09375 -3.191406 3.917969 -4.730469 3.917969 -6.746094 C 3.917969 -8.761719 5.09375 -10.304688 7.113281 -10.304688 C 9.128906 -10.304688 10.304688 -8.761719 10.304688 -6.746094 C 10.304688 -4.730469 9.128906 -3.191406 7.113281 -3.191406 Z M 7.113281 -3.191406 "/></g></g></g><g fill="#000000" fill-opacity="1"><g transform="translate(149.07863, 274.667696)"><g><path d="M 4.761719 -10.609375 L 0.832031 -10.609375 L 0.832031 0 L 2.851562 0 L 2.851562 -3.636719 L 4.761719 -3.636719 C 7.125 -3.636719 8.441406 -5.183594 8.441406 -7.125 C 8.441406 -9.066406 7.125 -10.609375 4.761719 -10.609375 Z M 4.714844 -5.5625 L 2.851562 -5.5625 L 2.851562 -8.671875 L 4.714844 -8.671875 C 5.714844 -8.671875 6.367188 -8.035156 6.367188 -7.125 C 6.367188 -6.214844 5.714844 -5.5625 4.714844 -5.5625 Z M 4.714844 -5.5625 "/></g></g></g><g fill="#000000" fill-opacity="1"><g transform="translate(159.795778, 274.667696)"><g><path d="M 7.078125 -10.609375 L 7.078125 -3.730469 L 2.804688 -10.609375 L 0.832031 -10.609375 L 0.832031 0 L 2.851562 0 L 2.851562 -6.882812 L 7.109375 0 L 9.09375 0 L 9.09375 -10.609375 Z M 7.078125 -10.609375 "/></g></g></g><g fill="#000000" fill-opacity="1"><g transform="translate(171.543718, 274.667696)"><g><path d="M 5.714844 -5.730469 L 5.714844 -4.109375 L 8.050781 -4.109375 L 8.050781 -2.925781 C 7.519531 -2.273438 6.714844 -1.910156 5.683594 -1.910156 C 3.746094 -1.910156 2.59375 -3.363281 2.59375 -5.289062 C 2.59375 -7.230469 3.746094 -8.6875 5.683594 -8.6875 C 6.851562 -8.6875 7.730469 -8.15625 8.246094 -7.304688 L 10.082031 -8.214844 C 9.203125 -9.730469 7.640625 -10.703125 5.683594 -10.703125 C 2.636719 -10.703125 0.53125 -8.335938 0.53125 -5.289062 C 0.53125 -2.242188 2.636719 0.121094 5.683594 0.121094 C 7.640625 0.121094 9.203125 -0.832031 10.082031 -2.347656 L 10.082031 -5.730469 Z M 5.714844 -5.730469 "/></g></g></g><g fill="#000000" fill-opacity="1"><g transform="translate(184.201171, 274.667696)"><g><path d="M 0.605469 -0.878906 L 0 1.757812 L 1.304688 1.757812 L 2.578125 -0.878906 Z M 0.605469 -0.878906 "/></g></g></g><g fill="#000000" fill-opacity="1"><g transform="translate(188.900334, 274.667696)"><g/></g></g><g fill="#000000" fill-opacity="1"><g transform="translate(194.660607, 274.667696)"><g><path d="M 3.835938 -10.609375 L 3.835938 -3.394531 C 3.835938 -2.410156 3.335938 -1.878906 2.636719 -1.847656 C 1.941406 -1.820312 1.515625 -2.226562 1.332031 -2.441406 L 0.152344 -1.015625 C 0.652344 -0.441406 1.546875 0.121094 2.757812 0.121094 C 4.609375 0.121094 5.851562 -0.941406 5.851562 -3.621094 L 5.851562 -10.609375 Z M 3.835938 -10.609375 "/></g></g></g><g fill="#000000" fill-opacity="1"><g transform="translate(203.164589, 274.667696)"><g><path d="M 4.761719 -10.609375 L 0.832031 -10.609375 L 0.832031 0 L 2.851562 0 L 2.851562 -3.636719 L 4.761719 -3.636719 C 7.125 -3.636719 8.441406 -5.183594 8.441406 -7.125 C 8.441406 -9.066406 7.125 -10.609375 4.761719 -10.609375 Z M 4.714844 -5.5625 L 2.851562 -5.5625 L 2.851562 -8.671875 L 4.714844 -8.671875 C 5.714844 -8.671875 6.367188 -8.035156 6.367188 -7.125 C 6.367188 -6.214844 5.714844 -5.5625 4.714844 -5.5625 Z M 4.714844 -5.5625 "/></g></g></g><g fill="#000000" fill-opacity="1"><g transform="translate(213.881739, 274.667696)"><g><path d="M 5.714844 -5.730469 L 5.714844 -4.109375 L 8.050781 -4.109375 L 8.050781 -2.925781 C 7.519531 -2.273438 6.714844 -1.910156 5.683594 -1.910156 C 3.746094 -1.910156 2.59375 -3.363281 2.59375 -5.289062 C 2.59375 -7.230469 3.746094 -8.6875 5.683594 -8.6875 C 6.851562 -8.6875 7.730469 -8.15625 8.246094 -7.304688 L 10.082031 -8.214844 C 9.203125 -9.730469 7.640625 -10.703125 5.683594 -10.703125 C 2.636719 -10.703125 0.53125 -8.335938 0.53125 -5.289062 C 0.53125 -2.242188 2.636719 0.121094 5.683594 0.121094 C 7.640625 0.121094 9.203125 -0.832031 10.082031 -2.347656 L 10.082031 -5.730469 Z M 5.714844 -5.730469 "/></g></g></g></svg>